# xmcd
#
# Track frame offsets: 
#        150
#        16487
#        36900
#        58787
#        76412
#        100625
#        119137
#        140212
#        157237
#        182975
#        212750
#        229150
#
# Disc length: 3379 seconds
#
# Revision: 3
# Processed by: cddbd v1.5.2PL0 Copyright (c) Steve Scherf et al.
# Submitted via: ExactAudioCopyFreeDBPlugin 1.0
#
DISCID=b30d310c
DTITLE=劉文娟 - 劉文娟Blue
DYEAR=1992
DGENRE=Pop
TTITLE0=車站八零八
TTITLE1=浮光掠影
TTITLE2=生日的願望
TTITLE3=兩朵白雲
TTITLE4=雪夜
TTITLE5=遍霧遍雨的一夜
TTITLE6=紅天灰雨(full version)
TTITLE7=無聲的風鈴 1992 Version
TTITLE8=今夜無星
TTITLE9=神話
TTITLE10=車站八零八Karaoke
TTITLE11=雪夜Karaoke
EXTD=YEAR: 1992
EXTT0=
EXTT1=
EXTT2=
EXTT3=
EXTT4=
EXTT5=
EXTT6=
EXTT7=
EXTT8=
EXTT9=
EXTT10=
EXTT11=
PLAYORDER=
